<?xml version="1.0" encoding="UTF-8" standalone="no"?>
<!DOCTYPE svg PUBLIC "-//W3C//DTD SVG 20010904//EN"
              "http://www.w3.org/TR/2001/REC-SVG-20010904/DTD/svg10.dtd">

<svg xmlns="http://www.w3.org/2000/svg"
     width="278.645mm" height="278.645mm"
     viewBox="0 0 1053 1053">
  <path id="Selection"
        fill="none" stroke="black" stroke-width="1"
        d="M 204.00,946.00
           C -320.00,500.00 255.00,-288.00 858.00,114.00
             916.03,87.95 941.94,107.94 939.27,145.27
             908.91,166.91 920.73,119.64 886.00,142.00
             1102.00,336.00 1112.00,708.00 881.00,914.50
             881.00,914.50 922.54,913.60 923.50,915.50
             934.78,922.01 939.74,943.00 929.98,946.00
             932.50,956.75 828.43,960.41 822.00,962.46
             818.07,963.71 781.50,988.64 781.50,988.64
             634.50,1078.50 402.00,1071.00 247.50,974.50
             224.00,994.00 162.94,996.73 204.00,946.00 Z
           M 828.00,143.00
           C 619.50,-10.50 340.50,15.00 178.17,181.28
             100.67,272.33 80.33,293.00 49.00,430.00
             126.00,349.50 151.50,331.50 247.90,325.93
             327.15,196.47 408.65,180.59 361.00,233.61
             354.12,237.86 294.58,317.33 285.33,338.67
             405.80,367.09 405.66,474.70 295.00,526.79
             208.00,556.67 147.15,445.25 216.00,372.99
             137.09,382.00 101.27,408.73 61.71,482.00
             41.64,532.55 27.64,602.55 148.00,618.00
             148.49,611.87 176.92,572.46 185.00,567.77
             226.77,547.74 212.58,595.80 190.91,616.36
             218.73,614.91 230.73,609.64 297.67,561.71
             510.67,346.67 572.00,235.33 745.00,241.28
             745.00,241.28 755.70,236.98 755.70,236.98
             766.25,211.25 812.12,161.77 828.00,143.00 Z
           M 852.09,165.91
           C 847.25,168.13 798.00,236.43 799.20,239.92
             801.82,254.18 893.36,245.73 894.91,373.09
             895.24,479.76 864.67,532.00 739.00,596.04
             763.67,710.67 719.25,865.66 413.75,887.75
             412.86,886.94 349.25,907.50 352.75,926.50
             576.25,952.65 566.00,942.00 812.00,920.45
             1070.00,742.00 1072.00,322.00 852.09,165.91 Z
           M 730.00,281.00
           C 691.33,288.00 656.67,292.00 612.67,320.00
             481.90,391.00 321.75,597.75 260.00,635.66
             227.85,656.67 170.38,653.38 170.43,660.43
             167.80,663.02 158.01,701.94 158.00,713.00
             193.00,726.50 334.00,687.00 440.83,610.06
             582.00,481.00 593.50,467.00 730.00,281.00 Z
           M 745.50,556.50
           C 822.00,566.00 957.50,330.00 777.04,282.89
             765.90,289.35 586.94,515.15 593.30,518.61
             595.93,521.44 689.75,511.03 704.50,541.50
             711.13,545.10 734.50,501.50 762.89,492.42
             779.09,500.36 742.55,521.27 745.50,556.50 Z
           M 264.01,375.60
           C 205.00,430.00 236.67,512.00 296.33,483.00
             353.00,445.33 370.67,411.33 264.01,375.60 Z
           M 48.00,430.00
           C 48.00,430.00 47.00,430.00 47.00,430.00
             47.00,430.00 48.00,431.00 48.00,431.00
             48.00,431.00 48.00,430.00 48.00,430.00 Z
           M 584.95,568.04
           C 586.50,592.25 667.43,585.67 674.25,570.00
             662.00,537.25 589.00,552.00 584.95,568.04 Z
           M 541.91,571.42
           C 502.50,572.50 432.00,702.79 239.00,748.00
             210.50,761.50 175.00,742.00 159.43,760.14
             144.50,823.50 333.00,896.50 435.00,827.37
             564.00,710.00 568.00,723.50 660.36,618.90
             663.29,610.44 650.15,609.01 645.00,609.00
             550.33,614.33 572.00,571.67 541.91,571.42 Z
           M 700.89,620.73
           C 635.41,708.41 459.67,846.35 466.33,846.67
             691.00,825.67 728.33,655.00 700.89,620.73 Z
           M 49.00,623.00
           C 47.11,627.80 41.49,693.57 169.91,861.00
             169.91,861.00 244.74,926.86 249.00,928.20
             256.88,934.37 339.08,905.28 330.71,889.78
             146.00,899.75 146.75,766.50 106.50,752.50
             97.97,744.32 89.34,749.52 91.64,734.00
             92.87,725.64 113.59,710.28 120.00,711.00
             120.00,699.06 130.80,665.68 130.34,664.04
             128.58,656.60 49.00,623.00 49.00,623.00 Z
           M 316.00,966.00
           C 456.33,1022.33 551.67,1033.00 728.00,970.50
             514.00,980.00 497.00,984.00 316.00,966.00 Z" />
</svg>
